<svg width="609" height="820" viewBox="0 0 609 820" fill="none" xmlns="http://www.w3.org/2000/svg">
<path d="M608.567 596.674C608.567 725.968 509.639 820 388.182 820H45.3577V92.2344H348.019C461.643 92.2344 554.693 180.388 554.693 302.828C554.693 345.922 542.942 385.104 522.372 417.425C574.286 457.588 608.567 521.253 608.567 596.674ZM197.177 372.371H348.018C378.385 372.371 403.851 335.149 403.851 302.828C403.851 269.524 378.385 232.303 348.018 232.303H197.177V372.371ZM456.743 596.674C456.743 556.516 426.381 512.439 388.182 512.439H348.019H197.177V679.932H388.182C426.381 679.932 456.743 636.832 456.743 596.674Z" fill="#EF6A38"/>
<path d="M351.772 745.869H0V0H311.431C431.995 0 526.436 96.1787 526.436 218.959C526.436 259.961 516.038 299.019 496.301 332.361C549.938 376.394 580.557 442.25 580.557 514.128C580.557 644.074 480.064 745.869 351.772 745.869ZM14.8157 731.043H351.772C473.752 731.043 565.741 637.796 565.741 514.128C565.741 444.58 535.226 381.082 482.024 339.932L476.679 335.796L480.311 330.091C500.793 297.913 511.621 259.487 511.621 218.959C511.621 102.585 425.559 14.8255 311.431 14.8255H14.8157V731.043ZM351.772 605.164H152.5V422.095H351.772C395.429 422.095 428.047 470.687 428.047 514.128C428.047 557.104 395.429 605.164 351.772 605.164ZM167.316 590.338H351.772C386.383 590.338 413.231 549.375 413.231 514.128C413.231 478.426 386.383 436.92 351.772 436.92H167.316V590.338ZM311.431 296.225H152.5V140.705H311.431C347.187 140.705 374.918 182.773 374.918 218.959C374.918 254.69 347.187 296.225 311.431 296.225ZM167.316 281.4H311.431C337.642 281.4 360.103 247.07 360.103 218.959C360.103 190.225 338.392 155.53 311.431 155.53H167.316V281.4Z" fill="#242424"/>
</svg>
